<?xml version="1.0" standalone="no"?>
<!DOCTYPE svg PUBLIC "-//W3C//DTD SVG 1.1//EN" "http://www.w3.org/Graphics/SVG/1.1/DTD/svg11.dtd" >
<svg>
<metadata>
Created by FontForge 20120731 at Thu Nov  3 20:39:17 2016
 By www-data
Generated in 2012 by FontLab Studio. Copyright info pending.
</metadata>
<defs>
<font id="BenugoFranchise" horiz-adv-x="757" >
  <font-face 
    font-family="Benugo Franchise "
    font-weight="700"
    font-stretch="normal"
    units-per-em="2048"
    panose-1="2 0 0 9 0 0 0 0 0 0"
    ascent="1536"
    descent="-512"
    x-height="1229"
    cap-height="1434"
    bbox="0 -238 1229 1671"
    underline-thickness="124"
    underline-position="-106"
    unicode-range="U+000D-E000"
  />
<missing-glyph horiz-adv-x="748" 
d="M68 0v1365h544v-1365h-544zM136 68h408v1229h-408v-1229z" />
    <glyph glyph-name=".notdef" horiz-adv-x="748" 
d="M68 0v1365h544v-1365h-544zM136 68h408v1229h-408v-1229z" />
    <glyph glyph-name="glyph1" horiz-adv-x="1980" 
 />
    <glyph glyph-name="glyph1" horiz-adv-x="1980" 
 />
    <glyph glyph-name="uni000D" unicode="&#xd;" horiz-adv-x="681" 
 />
    <glyph glyph-name="space" unicode=" " horiz-adv-x="270" 
 />
    <glyph glyph-name="exclam" unicode="!" horiz-adv-x="425" 
d="M82 116.5q0 53.5 39 92.5t92 39t92 -39t39 -92.5t-39 -92t-92 -38.5t-92 38.5t-39 92zM92 864v541q0 29 29 29h184q29 0 29 -29v-541q0 -41 -2 -57l-45 -430q-4 -29 -31 -29h-86q-27 0 -31 29l-45 430q-2 16 -2 57z" />
    <glyph glyph-name="quotedbl" unicode="&#x22;" horiz-adv-x="569" 
d="M41 1004v401q0 29 29 29h153q29 0 25 -29l-74 -401q-4 -29 -33 -29h-71q-29 0 -29 29zM319 1004v401q0 29 29 29h154q29 0 24 -29l-73 -401q-4 -29 -33 -29h-72q-29 0 -29 29z" />
    <glyph glyph-name="numbersign" unicode="#" horiz-adv-x="974" 
d="M41 541v65q0 29 29 29h213l26 168h-239q-29 0 -29 28v66q0 29 29 29h260l43 270q4 29 33 29h63q29 0 25 -29l-43 -270h139l43 270q4 29 33 29h63q29 0 25 -29l-43 -270h194q29 0 29 -29v-66q0 -28 -29 -28h-215l-26 -168h241q29 0 29 -29v-65q0 -29 -29 -29h-262
l-43 -274q-4 -29 -33 -29h-63q-29 0 -25 29l43 274h-139l-43 -274q-4 -29 -33 -29h-63q-29 0 -25 29l43 274h-192q-29 0 -29 29zM403 635h140l26 168h-139z" />
    <glyph glyph-name="dollar" unicode="$" horiz-adv-x="675" 
d="M41 319v117q0 29 27 37l186 49q27 8 27 -20v-172q0 -20 14 -34.5t35 -14.5h16q20 0 34.5 14t14.5 35v194q-4 57 -33 84l-264 203q-57 55 -57 133v172q0 96 60.5 167t152.5 87v76q0 29 29 29h110q29 0 29 -29v-76q92 -16 152.5 -87t60.5 -167v-78q0 -29 -27 -37l-186 -49
q-27 -8 -27 21v133q0 20 -14 34.5t-35 14.5h-16q-20 0 -34.5 -14.5t-14.5 -34.5v-113q2 -43 30 -71l269 -201q45 -41 55 -125v-277q0 -96 -60.5 -166.5t-152.5 -86.5v-78q0 -29 -29 -29h-110q-29 0 -29 29v78q-92 16 -152.5 86.5t-60.5 166.5z" />
    <glyph glyph-name="percent" unicode="%" horiz-adv-x="1107" 
d="M72 883v401q0 68 48 116t116 48h61q68 0 116 -48t48 -116v-401q0 -68 -48 -116t-116 -48h-61q-68 0 -116 48t-48 116zM137 27l666 1380q8 27 37 27h110q12 0 18.5 -9.5t2.5 -19.5l-666 -1378q-8 -27 -37 -27h-110q-29 0 -21 27zM229 891q0 -29 29 -29h16q29 0 29 29v385
q0 29 -29 29h-16q-29 0 -29 -29v-385zM647 150v401q0 68 48 116t116 48h61q68 0 116 -48.5t48 -115.5v-401q0 -68 -48 -116t-116 -48h-61q-68 0 -116 48t-48 116zM805 158q0 -29 29 -29h16q29 0 29 29v385q0 29 -29 28h-16q-29 0 -29 -28v-385z" />
    <glyph glyph-name="ampersand" unicode="&#x26;" horiz-adv-x="843" 
d="M82 244v362q0 37 10 88q12 37 33 54q33 25 59 34q-39 18 -59 41q-31 37 -39 82q-4 33 -4 53v232q0 106 75.5 182t182.5 76h78q106 0 182 -76t76 -182v-211q0 -29 -27 -21l-186 50q-27 8 -27 36v136q0 20 -14 34.5t-35 14.5h-16q-20 0 -34.5 -14.5t-14.5 -34.5v-238
q0 -33 10 -43q18 -18 37 -18h96q25 0 24 -25v-151q0 -25 -24 -25h-96q-20 0 -37 -16q-10 -12 -10 -58v-352q0 -20 14 -34.5t35 -14.5h16q20 0 34.5 14t14.5 35v297q1 16 17 12l292 -69q16 -4 17 -21v-67q0 -16 -17 -13l-69 15v-164q0 -106 -76 -182t-182 -76h-78
q-106 0 -182 75.5t-76 182.5z" />
    <glyph glyph-name="quotesingle" unicode="'" horiz-adv-x="290" 
d="M41 1004v401q0 29 29 29h153q29 0 25 -29l-74 -401q-4 -29 -33 -29h-71q-29 0 -29 29z" />
    <glyph glyph-name="parenleft" unicode="(" horiz-adv-x="481" 
d="M20 717q0 311 89 532q86 223 256 375q18 18 36 0l52 -51q18 -18 2 -37q-109 -141 -156 -317q-59 -201 -59 -502t59 -502q47 -176 156 -317q16 -18 -2 -37l-52 -51q-18 -18 -36 0q-174 156 -256 374q-88 219 -89 533z" />
    <glyph glyph-name="parenright" unicode=")" horiz-adv-x="481" 
d="M27 -102q100 131 155 317q59 223 59.5 501.5t-59.5 502.5q-55 186 -155 317q-16 18 2 37l51 51q18 18 37 0q166 -147 256 -375q88 -236 88 -532q0 -303 -88 -533q-86 -223 -256 -374q-18 -18 -37 0l-51 51q-18 18 -2 37z" />
    <glyph glyph-name="asterisk" unicode="*" horiz-adv-x="536" 
d="M41 1087q0 18 20 29q63 37 111 53q-47 16 -111 54q-20 8 -20 26q0 4 4 17l29 51q6 6 12 8q12 8 35 -2q37 -20 100 -70q-14 82 -14 123q-2 16 16 31q12 4 17 4h57q4 0 16 -4q16 -10 17 -31q0 -41 -15 -123q63 49 101 70q20 10 35 2q6 -2 12 -8l29 -51q4 -12 4 -17
q0 -14 -21 -26q-63 -37 -110 -54q47 -16 110 -53q20 -12 21 -29q0 -6 -4 -14l-29 -51q-4 -8 -12 -10q-14 -8 -35 4q-43 23 -101 69q14 -82 15 -122q0 -20 -17 -31q-12 -4 -16 -4h-57q-4 0 -17 4q-18 14 -16 31q0 41 14 122q-51 -43 -100 -69q-23 -10 -35 -4q-8 2 -12 10
l-29 51q-4 8 -4 14z" />
    <glyph glyph-name="plus" unicode="+" horiz-adv-x="897" 
d="M61 672v155q0 29 29 29h252v252q0 29 29 29h155q29 0 29 -29v-252h252q29 0 29 -29v-155q0 -29 -29 -29h-252v-252q0 -29 -29 -29h-155q-29 0 -29 29v252h-252q-29 0 -29 29z" />
    <glyph glyph-name="comma" unicode="," horiz-adv-x="362" 
d="M41 129q0 47 33 80q37 39 92 39q59 0 100 -40t49 -102q10 -45 2 -81q-16 -119 -106 -177q-31 -18 -53 -26l-4 -2q-4 0 -8.5 -1t-10.5 -2t-10 -1q-6 0 -8 2q-8 2 -8 14v31q0 4 2 6q6 6 10 6q27 0 54.5 21.5t37.5 70.5q6 27 -6 35q-4 2 -9 2t-13.5 -2t-10.5 -2
q-57 0 -96 35q-37 35 -37 94z" />
    <glyph glyph-name="hyphen" unicode="-" horiz-adv-x="610" 
d="M61 672v155q0 29 29 29h430q29 0 29 -29v-155q0 -29 -29 -29h-430q-29 0 -29 29z" />
    <glyph glyph-name="period" unicode="." horiz-adv-x="344" 
d="M41 116.5q0 53.5 39 92.5t92 39t92 -39t39 -92.5t-39 -92t-92 -38.5t-92 38.5t-39 92z" />
    <glyph glyph-name="slash" unicode="/" horiz-adv-x="598" 
d="M2 27l426 1380q8 27 37 27h110q12 0 18.5 -9.5t2.5 -19.5l-426 -1378q-8 -27 -37 -27h-110q-29 0 -21 27z" />
    <glyph glyph-name="zero" unicode="0" 
d="M82 244v946q0 106 75.5 182t182.5 76h78q106 0 182 -76t76 -182v-946q0 -106 -76 -182t-182 -76h-78q-106 0 -182 75.5t-76 182.5zM322 254q0 -20 14 -34.5t35 -14.5h16q20 0 34.5 14.5t14.5 34.5v926q0 20 -14 34.5t-35 14.5h-16q-20 0 -34.5 -14.5t-14.5 -34.5v-926z
" />
    <glyph glyph-name="one" unicode="1" horiz-adv-x="577" 
d="M82 1014v153q0 25 24 29q49 18 87 51q88 66 102 170q6 17 22 17h152q27 -2 27 -29v-1376q0 -29 -29 -29h-182q-29 0 -29 29v1028q-74 -55 -141 -68q-14 -2 -23 4q-10 6 -10 21z" />
    <glyph glyph-name="two" unicode="2" horiz-adv-x="759" 
d="M82 979v211q0 106 75.5 182t182.5 76h78q106 0 182 -76t76 -182v-123v-121q0 -135 -66 -235q-23 -37 -71 -106.5t-64 -94.5l-24 -39q-51 -82 -84 -168q-14 -35 -25 -72h317q18 0 19 -18v-195q0 -18 -19 -18h-540q-16 0 -19 18q-10 63 -6 146q4 45 8 69q8 63 35 138
q12 33 27 59q82 147 184 297q37 53 80 107q6 14 8 26t1 36t-1 42v242q0 20 -14 34.5t-35 14.5h-16q-20 0 -34.5 -14.5t-14.5 -34.5v-136q0 -29 -27 -36l-186 -50q-27 -8 -27 21z" />
    <glyph glyph-name="three" unicode="3" 
d="M82 244v223q0 29 27 37l186 49q27 8 27 -21v-278q0 -20 14 -34.5t35 -14.5h16q20 0 34.5 14t14.5 35v352q0 45 -10 58q-16 16 -37 16h-96q-25 0 -25 25v151q0 25 25 25h96q18 0 37 18q10 10 10 43v238q0 20 -14 34.5t-35 14.5h-16q-20 0 -34.5 -14.5t-14.5 -34.5v-136
q0 -29 -27 -36l-186 -50q-27 -8 -27 21v211q0 106 75.5 182t182.5 76h78q106 0 182 -76t76 -182v-232q0 -20 -4 -53q-8 -45 -39 -82q-27 -25 -60 -41q27 -10 60 -34q16 -16 33 -54q10 -51 10 -88v-362q0 -106 -76 -182t-182 -76h-78q-106 0 -182 75.5t-76 182.5z" />
    <glyph glyph-name="four" unicode="4" horiz-adv-x="798" 
d="M41 315v191q0 12 2 14q0 4 2 6q131 311 199 572q74 285 75 309q0 4 5 12q14 14 24 15h248q29 0 29 -29v-893h65q9 0 19 -8q8 -8 8 -19v-170q0 -12 -8 -20q-10 -8 -19 -8h-65v-258q0 -29 -29 -29h-182q-29 0 -29 29v258h-317q-10 0 -19 8q-8 6 -8 20zM252 512h135v408z
" />
    <glyph glyph-name="five" unicode="5" horiz-adv-x="759" 
d="M82 244v84q0 29 27 37l186 49q27 8 27 -21v-139q0 -20 14 -34.5t35 -14.5h16q20 0 34.5 14t14.5 35v403q0 33 -12 45q-16 16 -37 17h-16q-18 0 -37 -19q-12 -12 -12 -43v-57q0 -29 -23 -18l-195 51q-23 10 -22 29v743q0 29 29 29h120h371q29 0 29 -29v-174q0 -29 -29 -29
h-280v-309q63 29 133 29q36 -1 77 -11q72 -20 109 -72.5t35 -127.5v-467q0 -106 -76 -182t-182 -76h-78q-106 0 -182 75.5t-76 182.5z" />
    <glyph glyph-name="six" unicode="6" 
d="M82 244v946q0 106 75.5 182t182.5 76h78q106 0 182 -76t76 -182v-84q0 -29 -27 -37l-186 -49q-27 -8 -27 20v140q0 20 -14 34.5t-35 14.5h-16q-20 0 -34.5 -14.5t-14.5 -34.5v-301q63 29 133 28q37 0 77 -10q143 -39 144 -201v-452q0 -106 -76 -182t-182 -76h-78
q-106 0 -182 75.5t-76 182.5zM322 254q0 -20 14 -34.5t35 -14.5h16q20 0 34.5 14t14.5 35v389q0 33 -12 45q-16 16 -37 17h-16q-18 0 -37 -19q-12 -12 -12 -43v-389z" />
    <glyph glyph-name="seven" unicode="7" horiz-adv-x="649" 
d="M41 1235v172q0 8 8 18q8 8 19 9h501q12 0 21 -9q8 -10 8 -18v-190q-117 -309 -149 -689q-16 -186 -17 -501q1 -27 -26 -27h-189q-12 0 -22 12q-4 8 -5 15q0 440 50 753q33 209 104 428h-276q-12 0 -19 9q-8 8 -8 18z" />
    <glyph glyph-name="eight" unicode="8" 
d="M82 244v362q0 37 10 88q12 37 33 54q33 25 59 34q-39 18 -59 41q-31 37 -39 82q-4 33 -4 53v232q0 106 75.5 182t182.5 76h78q106 0 182 -76t76 -182v-232q0 -20 -4 -53q-8 -45 -39 -82q-27 -25 -60 -41q27 -10 60 -34q16 -16 33 -54q10 -51 10 -88v-362q0 -106 -76 -182
t-182 -76h-78q-106 0 -182 75.5t-76 182.5zM322 254q0 -20 14 -34.5t35 -14.5h16q20 0 34.5 14.5t14.5 34.5v342q0 45 -10 57q-16 16 -37 17h-20q-20 0 -37 -17q-10 -12 -10 -57v-342zM322 956q0 -33 10 -43q18 -18 37 -18h20q18 0 37 18q10 10 10 43v224q0 20 -14 34.5
t-35 14.5h-16q-20 0 -34.5 -14.5t-14.5 -34.5v-224z" />
    <glyph glyph-name="nine" unicode="9" 
d="M82 244v84q0 29 27 37l186 49q27 8 27 -21v-139q0 -20 14 -34.5t35 -14.5h16q20 0 34.5 14t14.5 35v301q-68 -29 -133 -29q-37 0 -78 11q-143 39 -143 200v453q0 106 76 182t182 76h78q106 0 182 -76t76 -182v-946q0 -106 -76 -182t-182 -76h-78q-106 0 -182 75.5
t-76 182.5zM322 791q0 -33 12 -46q16 -16 37 -16h16q18 0 37 19q12 12 12 43v389q0 20 -14 34.5t-35 14.5h-16q-20 0 -34.5 -14.5t-14.5 -34.5v-389z" />
    <glyph glyph-name="colon" unicode=":" horiz-adv-x="344" 
d="M41 444.5q0 53.5 39 92t92 38.5t92 -38.5t39 -92t-39 -92.5t-92 -39t-92 39t-39 92.5zM41 905q0 53 39 92t92 39t92 -39t39 -92t-39 -92t-92 -39t-92 39t-39 92z" />
    <glyph glyph-name="semicolon" unicode=";" horiz-adv-x="362" 
d="M41 461q0 47 33 80q37 39 92 39q59 0 100 -40t49 -102q10 -45 2 -82q-16 -119 -106 -176q-31 -18 -53 -26l-4 -2q-4 0 -8.5 -1t-10.5 -2.5t-10 -1.5q-6 0 -8 3q-8 2 -8 14v31q0 4 2 6q6 6 10 6q27 0 54.5 21.5t37.5 70.5q6 27 -6 35q-4 2 -9 2t-13.5 -2t-10.5 -2
q-57 0 -96 35q-37 35 -37 94zM41 905q0 53 39 92t92 39t92 -39t39 -92t-39 -92t-92 -39t-92 39t-39 92z" />
    <glyph glyph-name="less" unicode="&#x3c;" horiz-adv-x="655" 
d="M41 690v53q0 10 6 15l524 440q23 16 23 -12v-201q0 -29 -23 -47l-92 -78l-166 -137q-2 -2 -2 -6t2 -6l166 -138l92 -77q23 -18 23 -47v-201q0 -29 -23 -12l-524 440q-6 2 -6 14z" />
    <glyph glyph-name="equal" unicode="=" horiz-adv-x="720" 
d="M61 512v156q0 29 29 28h541q29 0 28 -28v-156q1 -29 -28 -29h-541q-29 0 -29 29zM61 819v156q0 29 29 29h541q29 0 28 -29v-156q1 -28 -28 -28h-541q-29 0 -29 28z" />
    <glyph glyph-name="greater" unicode="&#x3e;" horiz-adv-x="655" 
d="M61 248v201q0 29 23 47l258 215q2 2 2 6t-2 6l-258 215q-23 18 -23 47v201q0 29 23 12l524 -440q6 -4 6 -15v-53q0 -12 -6 -14l-524 -440q-23 -16 -23 12z" />
    <glyph glyph-name="question" unicode="?" horiz-adv-x="782" 
d="M72 946v156q0 166 81.5 256t231.5 90q98 0 167 -35t101.5 -94t45 -121.5t10.5 -134.5q-4 -117 -24.5 -159t-131.5 -171q-12 -14 -36.5 -40.5t-38 -42t-30 -39t-24.5 -44.5q-12 -31 -29 -164l-2 -30q0 -23 -24 -23h-86q-23 0 -27 23l-8 90q-8 63 -8 104q-2 57 19.5 105.5
t81.5 126.5t79 106q25 37 35 63.5t11 42t1 56.5q0 78 -16.5 114t-65.5 36q-74 0 -74 -105v-108q0 -25 -22 -29l-195 -47q-23 -10 -22 18zM201 116.5q0 53.5 39 92.5t92 39t92 -39t39 -92.5t-39 -92t-92 -38.5t-92 38.5t-39 92z" />
    <glyph glyph-name="at" unicode="@" horiz-adv-x="1097" 
d="M41 717q0 260 151.5 438t372.5 178q119 0 221 -49q78 -37 150 -127q121 -158 121 -350q0 -121 -45 -219q-51 -104 -131 -154q-59 -35 -133 -35q-55 0 -95 23q-41 27 -59 70l-39 -39q-52 -39 -111 -39q-102 0 -145 106q-16 43 -20 107q0 115 40 198q47 100 125 154
q53 39 119 39q53 0 90 -31l11 -10l4 10q8 20 24 21h127q10 0 21 -11q8 -8 4 -24l-99 -340q0 -2 -4 -18.5t-6 -28t-3 -26.5t4 -24.5t18 -11.5q33 -4 71 27q25 14 45 51q45 80 45 207q0 178 -100 285q-90 94 -250 104q-70 2 -145.5 -31.5t-126.5 -105.5q-109 -154 -109 -348
q0 -223 101 -344q106 -129 280 -129q156 0 256 100q8 8 20.5 8t18.5 -8l49 -59q16 -20 -6 -43q-119 -119 -332 -129q-158 -8 -286 81q-63 43 -105 91q-139 158 -139 436zM453 635q0 -31 8 -49q4 -14 10 -19q14 -14 43 2q8 2 23 21q23 29 38 84l41 153q0 14 -4 35
q-8 12 -12 15q-2 2 -14 2q-25 0 -45 -21q-23 -20 -45 -61q-43 -82 -43 -162z" />
    <glyph glyph-name="A" unicode="A" horiz-adv-x="729" 
d="M43 29l154 1376q4 29 32 29h271q28 0 32 -29l154 -1376q0 -4 1 -7q0 -22 -25 -22h-187q-27 0 -31 29l-16 221h-127l-16 -221q-4 -29 -31 -29h-186q-25 0 -25 22v7zM317 479h95l-39 555h-17z" />
    <glyph glyph-name="B" unicode="B" horiz-adv-x="747" 
d="M92 29v1376q0 29 29 29h307q106 0 182 -76t76 -182v-205q0 -94 -57 -158q-27 -31 -74 -53q43 -14 74 -45q57 -57 57 -154v-303q0 -106 -75.5 -182t-182.5 -76h-307q-29 0 -29 29zM332 219h65q20 0 34.5 14.5t14.5 34.5v326q0 20 -14 34.5t-35 14.5h-65v-424zM332 866h65
q20 0 34.5 14.5t14.5 34.5v250q0 20 -14 34.5t-35 14.5h-65v-348z" />
    <glyph glyph-name="C" unicode="C" horiz-adv-x="727" 
d="M72 244v946q0 106 76 182t182 76h78q106 0 182 -76t76 -182v-158q0 -29 -27 -37l-186 -49q-27 -6 -27 23v211q0 20 -14.5 34.5t-34.5 14.5h-17q-20 0 -34.5 -14.5t-14.5 -34.5v-926q0 -20 14.5 -34.5t34.5 -14.5h17q20 0 34.5 14t14.5 35v221q0 25 27 33l178 49
q17 4 27 -4q8 -7 8 -23v-8v-278q0 -106 -76 -182t-182 -76h-78q-106 0 -182 75.5t-76 182.5z" />
    <glyph glyph-name="D" unicode="D" 
d="M92 29v1376q0 29 29 29h307q106 0 182 -76t76 -182v-918q0 -106 -75.5 -182t-182.5 -76h-307q-29 0 -29 29zM332 219h65q20 0 34.5 14.5t14.5 34.5v897q0 20 -14 34.5t-35 14.5h-65v-995z" />
    <glyph glyph-name="E" unicode="E" horiz-adv-x="675" 
d="M92 29v1376q0 29 29 29h444q29 0 29 -29v-182q0 -29 -29 -29h-233v-295h203q29 0 28 -29v-182q0 -29 -28 -29h-203v-419h233q29 0 29 -29v-182q0 -29 -29 -29h-444q-29 0 -29 29z" />
    <glyph glyph-name="F" unicode="F" horiz-adv-x="655" 
d="M92 29v1376q0 29 29 29h444q29 0 29 -29v-182q0 -29 -29 -29h-233v-295h203q29 0 28 -29v-182q0 -29 -28 -29h-203v-630q0 -29 -29 -29h-182q-29 0 -29 29z" />
    <glyph glyph-name="G" unicode="G" horiz-adv-x="737" 
d="M72 244v946q0 106 76 182t182 76h78q106 0 182 -76t76 -182v-105q0 -31 -27 -36l-190 -52q-23 -4 -23 21v162q0 20 -14.5 34.5t-34.5 14.5h-17q-20 0 -34.5 -14.5t-14.5 -34.5v-926q0 -20 14.5 -34.5t34.5 -14.5h17q20 0 34.5 14t14.5 35v364h-57v148q0 20 24 27l244 67
q14 4 21.5 -3t7.5 -26v-587q0 -106 -76 -182t-182 -76h-78q-106 0 -182 75.5t-76 182.5z" />
    <glyph glyph-name="H" unicode="H" horiz-adv-x="798" 
d="M92 29v1376q0 29 29 29h182q29 0 29 -29v-551h135v551q0 29 29 29h182q29 0 29 -29v-1376q0 -29 -29 -29h-182q-29 0 -29 29v585h-135v-585q0 -29 -29 -29h-182q-29 0 -29 29z" />
    <glyph glyph-name="I" unicode="I" horiz-adv-x="423" 
d="M92 29v1376q0 29 29 29h182q29 0 29 -29v-1376q0 -29 -29 -29h-182q-29 0 -29 29z" />
    <glyph glyph-name="J" unicode="J" horiz-adv-x="727" 
d="M51 244v264q0 31 27 37l186 51q27 6 27 -23v-319q0 -20 14 -34.5t35 -14.5h16q20 0 35 14t15 35v1151q-1 29 28 29h182q29 0 29 -29v-1161q0 -106 -75.5 -182t-182.5 -76h-78q-106 0 -182 75.5t-76 182.5z" />
    <glyph glyph-name="K" unicode="K" horiz-adv-x="825" 
d="M92 29v1376q0 29 29 29h182q29 0 29 -29v-440l188 444q8 25 39 25h205q12 0 16 -10q2 -5 2 -9.5t-2 -9.5l-274 -604l270 -772q4 -10 -2 -19.5t-18 -9.5h-203q-27 0 -37 25l-149 462l-35 -86v-372q0 -29 -29 -29h-182q-29 0 -29 29z" />
    <glyph glyph-name="L" unicode="L" horiz-adv-x="675" 
d="M102 29v1376q0 29 29 29h182q29 0 29 -29v-1165h254q29 0 29 -29v-182q0 -29 -29 -29h-277h-4h-2h-182q-29 0 -29 29z" />
    <glyph glyph-name="M" unicode="M" horiz-adv-x="983" 
d="M92 29v1376q0 29 29 29h174q23 0 35 -29l162 -569l161 569q12 29 35 29h174q29 0 29 -29v-1376q0 -29 -29 -29h-196q-29 0 -29 29v647l-135 -467q-10 -16 -21 0l-135 467v-647q0 -29 -29 -29h-196q-29 0 -29 29z" />
    <glyph glyph-name="N" unicode="N" horiz-adv-x="839" 
d="M92 29v1376q0 29 29 29h135q27 0 39 -27l213 -657v655q0 29 29 29h182q29 0 29 -29v-1376q0 -29 -29 -29h-131q-27 0 -39 27l-217 678v-676q0 -29 -29 -29h-182q-29 0 -29 29z" />
    <glyph glyph-name="O" unicode="O" horiz-adv-x="737" 
d="M72 244v946q0 106 75.5 182t182.5 76h78q106 0 182 -76t76 -182v-946q0 -106 -76 -182t-182 -76h-78q-106 0 -182 75.5t-76 182.5zM311 254q0 -20 14.5 -34.5t34.5 -14.5h17q20 0 34.5 14.5t14.5 34.5v926q0 20 -14.5 34.5t-34.5 14.5h-17q-20 0 -34.5 -14.5t-14.5 -34.5
v-926z" />
    <glyph glyph-name="P" unicode="P" horiz-adv-x="727" 
d="M92 29v1376q0 29 29 29h307q106 0 182 -76t76 -182v-334q0 -106 -75.5 -182t-182.5 -76h-96v-555q0 -29 -29 -29h-182q-29 0 -29 29zM332 803h65q20 0 34.5 14.5t14.5 34.5v313q0 20 -14 34.5t-35 14.5h-65v-411z" />
    <glyph glyph-name="Q" unicode="Q" horiz-adv-x="745" 
d="M72 244v946q0 106 75.5 182t182.5 76h78q106 0 182 -76t76 -182v-946q0 -119 -86 -193l84 -127q11 -15 11 -25q0 -13 -20 -18l-157 -41q-6 -1 -11 -1q-26 0 -45 30l-75 117h-37q-106 0 -182 75.5t-76 182.5zM311 254q0 -20 14.5 -34.5t34.5 -14.5h17q20 0 34.5 14
t14.5 35v926q0 20 -14.5 34.5t-34.5 14.5h-17q-20 0 -34.5 -14.5t-14.5 -34.5v-926z" />
    <glyph glyph-name="R" unicode="R" horiz-adv-x="770" 
d="M92 29v1376q0 29 29 29h307q106 0 182 -76t76 -182v-334q0 -74 -39 -135.5t-102 -94.5l182 -583q1 -5 1 -10q0 -19 -21 -19h-187q-29 0 -39 29l-149 501v-530l-2 20q-2 -20 -27 -20h-182q-29 0 -29 29zM332 803h65q20 0 34.5 14t14.5 35v313q0 20 -14 34.5t-35 14.5h-65
v-411z" />
    <glyph glyph-name="S" unicode="S" horiz-adv-x="716" 
d="M61 244v196q0 29 27 37l186 49q27 8 27 -20v-252q0 -20 14.5 -34.5t34.5 -14.5h17q20 0 34.5 14t14.5 35v270q-4 57 -33 84l-264 203q-57 55 -58 133v246q0 106 76 182t182 76h78q106 0 182 -76t76 -182v-105q0 -29 -26 -36l-187 -50q-27 -8 -26 21v160q0 20 -14.5 34.5
t-34.5 14.5h-17q-20 0 -34.5 -14.5t-14.5 -34.5v-187q2 -43 31 -71l268 -201q45 -41 55 -125v-352q0 -106 -75.5 -182t-182.5 -76h-78q-106 0 -182 75.5t-76 182.5z" />
    <glyph glyph-name="T" unicode="T" horiz-adv-x="688" 
d="M51 1223v182q0 29 29 29h528q29 0 29 -29v-182q0 -29 -29 -29h-145v-1165q0 -29 -29 -29h-182q-10 0 -19.5 8t-9.5 21v1165h-143q-29 0 -29 29z" />
    <glyph glyph-name="U" unicode="U" horiz-adv-x="737" 
d="M72 244v1161q0 29 28 29h183q29 0 28 -29v-1151q0 -20 14.5 -34.5t34.5 -14.5h17q20 0 34.5 14t14.5 35v1151q0 29 29 29h182q29 0 29 -29v-1161q0 -106 -76 -182t-182 -76h-78q-106 0 -182 75.5t-76 182.5z" />
    <glyph glyph-name="V" unicode="V" horiz-adv-x="774" 
d="M23 1405q-1 4 -1 7q0 22 25 22h221q27 0 30 -29l85 -868h8l84 868q4 29 31 29h221q25 0 25 -22v-7l-242 -1376q-4 -29 -33 -29h-180q-29 0 -33 29z" />
    <glyph glyph-name="W" unicode="W" horiz-adv-x="1165" 
d="M23 1405q-1 4 -1 7q0 22 25 22h221q27 0 30 -29l93 -836h8l70 836q4 29 31 29h166q27 0 30 -29l70 -836h8l92 836q4 29 31 29h221q25 0 25 -22v-7l-242 -1376q-4 -29 -33 -29h-180q-29 0 -33 29l-71 510h-2l-72 -510q-4 -29 -33 -29h-180q-29 0 -33 29z" />
    <glyph glyph-name="X" unicode="X" horiz-adv-x="774" 
d="M63 29l168 690l-168 686q-1 3 -1 7q0 6 4 12q8 10 20 10h190q29 0 33 -29l78 -406l78 406q4 29 33 29h190q12 0 20 -10q5 -6 4 -12q0 -3 -1 -7l-168 -686l168 -690q1 -5 1 -9q0 -20 -24 -20h-190q-29 0 -33 29l-78 405l-78 -405q-4 -29 -33 -29h-190q-12 0 -20 8
q-5 5 -4 13q0 3 1 8z" />
    <glyph glyph-name="Y" unicode="Y" 
d="M23 1405q-2 4 -2 8q0 6 4 11q6 10 18 10h217q29 0 33 -29l82 -516h8l82 516q4 29 33 29h217q12 0 18 -10q4 -5 4 -11q0 -4 -2 -8l-235 -848v-528q0 -29 -29 -29h-184q-29 0 -29 29v528z" />
    <glyph glyph-name="Z" unicode="Z" horiz-adv-x="722" 
d="M61 1233v172q0 29 29 29h539q12 0 19 -9.5t3 -19.5l-284 -1176h266q29 0 29 -28v-172q0 -29 -29 -29h-543q-12 0 -19.5 8t-2.5 21l284 1175h-262q-29 0 -29 29z" />
    <glyph glyph-name="bracketleft" unicode="[" horiz-adv-x="471" 
d="M20 -209v1851q0 29 29 29h373q29 0 29 -29v-139q0 -28 -29 -28h-197v-1516h197q29 0 29 -29v-139q0 -29 -29 -29h-373q-29 0 -29 29z" />
    <glyph glyph-name="backslash" unicode="\" horiz-adv-x="598" 
d="M2 1405q-4 10 2 19.5t19 9.5h110q29 0 37 -27l426 -1380q8 -27 -21 -27h-110q-29 0 -37 27z" />
    <glyph glyph-name="bracketright" unicode="]" horiz-adv-x="471" 
d="M20 -70q0 29 29 29h197v1516h-197q-29 0 -29 28v139q0 29 29 29h373q29 0 29 -29v-1851q0 -29 -29 -29h-373q-29 0 -29 29v139z" />
    <glyph glyph-name="asciicircum" unicode="^" horiz-adv-x="569" 
d="M4 1104q-6 16 4 33l254 286q6 10 21 11h4q10 -1 20 -11l254 -286q10 -16 4 -33q-4 -12 -24 -12h-129q-16 0 -23 10l-104 143l-105 -143q-10 -10 -22 -10h-129q-20 0 -25 12z" />
    <glyph glyph-name="underscore" unicode="_" horiz-adv-x="856" 
d="M41 -29q0 29 29 29h716q29 0 29 -29v-127q0 -28 -29 -28h-716q-29 0 -29 28v127z" />
    <glyph glyph-name="a" unicode="a" horiz-adv-x="729" 
d="M43 29l154 1171q4 29 32 29h271q28 0 32 -29l154 -1171v-7q0 -22 -24 -22h-187q-27 0 -31 29l-16 200h-127l-16 -200q-4 -29 -31 -29h-186q-25 0 -25 22v7zM317 459h95l-39 452h-17z" />
    <glyph glyph-name="b" unicode="b" horiz-adv-x="747" 
d="M92 29v1171q0 29 29 29h307q106 0 182 -76t76 -182v-135q0 -94 -57 -158q-27 -31 -74 -53q43 -14 74 -45q57 -57 57 -154v-168q0 -106 -75.5 -182t-182.5 -76h-301q-35 0 -35 29zM332 219h65q20 0 34.5 14.5t14.5 34.5v191q0 20 -14 34.5t-35 14.5h-65v-289zM332 731h65
q20 0 34.5 14.5t14.5 34.5v181q0 20 -14 34.5t-35 14.5h-65v-279z" />
    <glyph glyph-name="c" unicode="c" horiz-adv-x="727" 
d="M72 244v741q0 106 76 182t182 76h78q106 0 182 -75.5t76 -182.5v-123q0 -29 -27 -37l-186 -28q-27 -8 -27 20v158q0 20 -14.5 34.5t-34.5 14.5h-17q-20 0 -34.5 -14.5t-14.5 -34.5v-721q0 -20 14.5 -34.5t34.5 -14.5h17q20 0 34.5 14t14.5 35v246q0 29 27 20l186 -24
q27 -8 27 -37v-215q0 -106 -76 -182t-182 -76h-78q-106 0 -182 75.5t-76 182.5z" />
    <glyph glyph-name="d" unicode="d" 
d="M92 29v1171q0 29 29 29h307q106 0 182 -76t76 -182v-713q0 -106 -75.5 -182t-182.5 -76h-307q-29 0 -29 29zM332 219h65q20 0 34.5 14.5t14.5 34.5v693q0 20 -14 34.5t-35 14.5h-65v-791z" />
    <glyph glyph-name="e" unicode="e" horiz-adv-x="675" 
d="M92 29v1171q0 29 29 29h444q29 0 29 -29v-182q0 -29 -29 -29h-233v-233h203q29 0 28 -29v-182q0 -29 -28 -29h-203v-276h233q29 0 29 -29v-182q0 -29 -29 -29h-444q-29 0 -29 29z" />
    <glyph glyph-name="f" unicode="f" horiz-adv-x="655" 
d="M92 29v1171q0 29 29 29h444q29 0 29 -29v-182q0 -29 -29 -29h-233v-233h203q29 0 28 -29v-182q0 -29 -28 -29h-203v-487q0 -29 -29 -29h-182q-29 0 -29 29z" />
    <glyph glyph-name="g" unicode="g" horiz-adv-x="737" 
d="M72 244v741q0 106 76 182t182 76h78q106 0 182 -75.5t76 -182.5v-45q0 -29 -27 -37l-186 -67q-27 -8 -27 20v119q0 20 -14.5 34.5t-34.5 14.5h-17q-20 0 -34.5 -14.5t-14.5 -34.5v-721q0 -20 14.5 -34.5t34.5 -14.5h17q20 0 34.5 14t14.5 35v221h-57v234h268q29 0 29 -29
v-436q0 -106 -76 -182t-182 -76h-78q-106 0 -182 75.5t-76 182.5z" />
    <glyph glyph-name="h" unicode="h" horiz-adv-x="798" 
d="M92 29v1171q0 29 29 29h182q29 0 29 -29v-469h135v469q0 29 29 29h182q29 0 29 -29v-1171q0 -29 -29 -29h-182q-29 0 -29 29v463h-135v-463q0 -29 -29 -29h-182q-29 0 -29 29z" />
    <glyph glyph-name="i" unicode="i" horiz-adv-x="423" 
d="M92 29v1171q0 29 29 29h182q29 0 29 -29v-1171q0 -29 -29 -29h-182q-29 0 -29 29z" />
    <glyph glyph-name="j" unicode="j" horiz-adv-x="727" 
d="M51 244v219q0 29 27 37l186 49q27 8 27 -21v-274q0 -20 14 -34.5t35 -14.5h16q20 0 35 14t15 35v946q-1 29 28 29h182q29 0 29 -29v-956q0 -106 -75.5 -182t-182.5 -76h-78q-106 0 -182 75.5t-76 182.5z" />
    <glyph glyph-name="k" unicode="k" horiz-adv-x="825" 
d="M92 29v1171q0 29 29 29h182q29 0 29 -29v-358l188 362q8 25 39 25h205q12 1 16 -9q2 -5 2 -10t-2 -10l-278 -522l274 -649q4 -10 -2 -19.5t-18 -9.5h-203q-27 0 -37 25l-149 340l-35 -66v-270q0 -29 -29 -29h-182q-29 0 -29 29z" />
    <glyph glyph-name="l" unicode="l" horiz-adv-x="675" 
d="M102 29v1171q0 29 29 29h182q29 0 29 -29v-960h254q29 0 29 -29v-182q0 -29 -29 -29h-277h-4h-2h-182q-29 0 -29 29z" />
    <glyph glyph-name="m" unicode="m" horiz-adv-x="983" 
d="M92 29v1171q0 29 29 29h174q23 0 35 -29l162 -631l161 631q12 29 35 29h174q29 0 29 -29v-1171q0 -29 -29 -29h-196q-29 0 -29 29v544l-135 -487q-10 -25 -21 0l-135 487v-544q0 -29 -29 -29h-196q-29 0 -29 29z" />
    <glyph glyph-name="n" unicode="n" horiz-adv-x="839" 
d="M92 29v1171q0 29 29 29h135q27 0 39 -27l213 -596v594q0 29 29 29h182q29 0 29 -29v-1171q0 -29 -29 -29h-131q-27 0 -39 27l-217 534v-532q0 -29 -29 -29h-182q-29 0 -29 29z" />
    <glyph glyph-name="o" unicode="o" horiz-adv-x="737" 
d="M72 244v741q0 106 75.5 182t182.5 76h78q106 0 182 -76t76 -182v-741q0 -106 -76 -182t-182 -76h-78q-106 0 -182 75.5t-76 182.5zM311 254q0 -20 14.5 -34.5t34.5 -14.5h17q20 0 34.5 14.5t14.5 34.5v721q0 20 -14.5 34.5t-34.5 14.5h-17q-20 0 -34.5 -14.5t-14.5 -34.5
v-721z" />
    <glyph glyph-name="p" unicode="p" horiz-adv-x="727" 
d="M92 29v1171q0 29 29 29h307q106 0 182 -76t76 -182v-273q0 -106 -75.5 -182t-182.5 -76h-96v-411q0 -29 -29 -29h-182q-29 0 -29 29zM332 659h65q20 0 34.5 15t14.5 35v252q0 20 -14 34.5t-35 14.5h-65v-351z" />
    <glyph glyph-name="q" unicode="q" horiz-adv-x="745" 
d="M72 244v741q0 106 75.5 182t182.5 76h78q106 0 182 -75.5t76 -182.5v-741q0 -119 -86 -193l88 -133q5 -10 5 -17q0 -14 -16 -20l-141 -63q-10 -4 -18 -4q-16 0 -27 16l-104 156h-37q-106 0 -182 75.5t-76 182.5zM311 254q0 -20 14.5 -34.5t34.5 -14.5h17q20 0 34.5 14
t14.5 35v721q0 20 -14.5 34.5t-34.5 14.5h-17q-20 0 -34.5 -14.5t-14.5 -34.5v-721z" />
    <glyph glyph-name="r" unicode="r" horiz-adv-x="770" 
d="M92 29v1171q0 29 29 29h307q106 0 182 -76t76 -182v-252q0 -72 -44 -133.5t-110 -96.5l195 -460q1 -5 1 -10q0 -19 -21 -19h-187q-29 0 -39 29l-149 379v-379q0 -29 -31 -29h-182q-27 0 -27 29zM332 680h65q20 0 34.5 14.5t14.5 34.5v232q0 20 -14 34.5t-35 14.5h-65
v-330z" />
    <glyph glyph-name="s" unicode="s" horiz-adv-x="716" 
d="M61 244v114q0 29 27 37l186 49q27 8 27 -20v-170q0 -20 14.5 -34.5t34.5 -14.5h17q20 0 34.5 14t14.5 35v127q-4 57 -33 84l-264 203q-57 55 -58 133v184q0 106 76 182t182 76h78q106 0 182 -75.5t76 -182.5v-78q0 -29 -26 -37l-187 -49q-27 -8 -26 21v133
q0 20 -14.5 34.5t-34.5 14.5h-17q-20 0 -34.5 -14.5t-14.5 -34.5v-125q2 -43 31 -72l268 -200q45 -41 55 -125v-209q0 -106 -75.5 -182t-182.5 -76h-78q-106 0 -182 75.5t-76 182.5z" />
    <glyph glyph-name="t" unicode="t" horiz-adv-x="688" 
d="M51 1018v182q0 29 29 29h528q29 0 29 -29v-182q0 -29 -29 -29h-145v-960q0 -29 -29 -29h-182q-10 0 -19.5 8t-9.5 21v960h-143q-29 0 -29 29z" />
    <glyph glyph-name="u" unicode="u" horiz-adv-x="737" 
d="M72 244v956q0 29 28 29h183q29 0 28 -29v-946q0 -20 14.5 -34.5t34.5 -14.5h17q20 0 34.5 14t14.5 35v946q0 29 29 29h182q29 0 29 -29v-956q0 -106 -76 -182t-182 -76h-78q-106 0 -182 75.5t-76 182.5z" />
    <glyph glyph-name="v" unicode="v" horiz-adv-x="774" 
d="M23 1200q-1 4 -1 7q0 22 25 22h221q27 0 30 -29l85 -766h8l84 766q4 29 31 29h221q25 0 25 -22v-7l-242 -1171q-4 -29 -33 -29h-180q-29 0 -33 29z" />
    <glyph glyph-name="w" unicode="w" horiz-adv-x="1124" 
d="M23 1200q-1 4 -1 7q0 22 25 22h221q27 0 30 -29l73 -692h8l78 692q4 29 30 29h150q27 0 31 -29l77 -692h9l71 692q4 29 31 29h221q25 0 25 -22v-7l-221 -1171q-4 -29 -33 -29h-180q-29 0 -33 29l-72 428h-2l-72 -428q-4 -29 -32 -29h-181q-29 0 -32 29z" />
    <glyph glyph-name="x" unicode="x" horiz-adv-x="774" 
d="M63 29l168 587l-168 584q-1 3 -1 7q0 7 4 13q8 10 20 9h190q29 0 33 -29l78 -303l78 303q4 29 33 29h190q12 1 20 -9q5 -6 4 -13q0 -3 -1 -7l-168 -584l168 -587q1 -5 1 -9q0 -20 -24 -20h-190q-29 0 -33 29l-78 303l-78 -303q-4 -29 -33 -29h-190q-12 0 -20 8
q-5 5 -4 13q0 3 1 8z" />
    <glyph glyph-name="y" unicode="y" 
d="M23 1200q-2 4 -2 8q0 6 4 12q6 9 18 9h217q29 0 33 -29l82 -393h8l82 393q4 29 33 29h217q12 0 18 -9q4 -6 4 -12q0 -4 -2 -8l-235 -725v-446q0 -29 -29 -29h-184q-29 0 -29 29v446z" />
    <glyph glyph-name="z" unicode="z" horiz-adv-x="722" 
d="M61 1028v172q0 29 29 29h539q12 0 19 -9.5t3 -19.5l-284 -971h266q29 0 29 -28v-172q0 -29 -29 -29h-543q-12 0 -19.5 8t-2.5 21l284 970h-262q-29 0 -29 29z" />
    <glyph glyph-name="braceleft" unicode="{" horiz-adv-x="606" 
d="M82 666v102q0 14 8 22.5t23 8.5h59q20 -2 45 4q43 12 51 61q2 20 -11 53t-34.5 71t-25.5 48q-70 133 -78 269q-8 113 80 208q35 35 86 64q23 10 61 20q88 18 148 5l14 -9q16 -12 16 -32v-117q0 -12 -8 -20.5t-22 -8.5h-68q-29 0 -53 -10q-53 -29 -47 -92q2 -53 43 -154
q10 -25 33.5 -77t33.5 -78q25 -61 29 -125q4 -131 -115 -162q119 -33 115 -162q-4 -63 -29 -125q-10 -29 -34.5 -81t-32.5 -75q-41 -100 -43 -153q-6 -63 47 -92q25 -10 53 -11h68q14 0 22 -8t8 -20v-117q0 -20 -16 -33l-14 -8q-72 -18 -148 2q-41 10 -61 23q-51 25 -86 63
q-88 88 -80 209q8 135 78 268q4 10 25.5 48t34.5 71t11 53q-8 49 -51 62q-25 6 -45 4h-59q-14 0 -22.5 8t-8.5 23z" />
    <glyph glyph-name="bar" unicode="|" horiz-adv-x="327" 
d="M82 -166v1765q0 29 29 29h106q29 0 29 -29v-1765q0 -29 -29 -29h-106q-29 0 -29 29z" />
    <glyph glyph-name="braceright" unicode="}" horiz-adv-x="606" 
d="M82 -10q0 12 8 20t23 8h67q29 0 53 11q49 27 48 92q-2 53 -43 153q-8 23 -33 75t-35 81q-25 61 -29 125q-4 129 115 162q-119 31 -115 162q4 63 29 125q10 27 33.5 79t34.5 76q41 100 43 154q2 66 -48 92q-24 10 -53 10h-67q-14 0 -22.5 8.5t-8.5 20.5v117q0 25 14 32
l17 9q57 14 147 -5q39 -10 62 -20q51 -29 86 -64q88 -96 79 -208q-8 -135 -77 -269q-4 -10 -26 -48t-35 -70.5t-11 -53.5q8 -49 51 -61q25 -6 45 -4h60q14 0 22 -8.5t8 -22.5v-102q0 -14 -8 -22.5t-22 -8.5h-60q-20 2 -45 -4q-43 -12 -51 -62q-2 -20 11 -53t35 -70.5
t26 -48.5q70 -133 77 -268q8 -121 -79 -209q-35 -39 -86 -63q-20 -12 -62 -23q-78 -20 -147 -2l-17 8q-14 8 -14 33v117z" />
    <glyph glyph-name="uni00A0" unicode="&#xa0;" horiz-adv-x="270" 
 />
    <glyph glyph-name="cent" unicode="&#xa2;" horiz-adv-x="737" 
d="M72 457v528q0 96 60.5 167t152.5 87v166q0 29 28 29h111q29 0 29 -29v-166q92 -16 152.5 -87t60.5 -167v-59q0 -29 -27 -37l-186 -29q-27 -8 -27 21v94q0 20 -14.5 34.5t-34.5 14.5h-17q-20 0 -34.5 -14.5t-14.5 -34.5v-508q0 -20 14.5 -34.5t34.5 -14.5h17q20 0 34.5 14
t14.5 35v186q0 29 27 21l186 -25q27 -8 27 -37v-155q0 -96 -60.5 -167t-152.5 -87v-174q0 -29 -29 -29h-111q-29 0 -28 29v174q-92 16 -152.5 86.5t-60.5 167.5z" />
    <glyph glyph-name="sterling" unicode="&#xa3;" horiz-adv-x="675" 
d="M94 1249v156q0 29 29 29h430q29 0 29 -29v-156q0 -28 -29 -28h-430q-29 0 -29 28zM102 29v1376q0 29 29 29h182q29 0 29 -29v-1165h254q29 0 29 -29v-182q0 -29 -29 -29h-277h-4h-2h-182q-29 0 -29 29z" />
    <glyph glyph-name="copyright" unicode="&#xa9;" horiz-adv-x="532" 
d="M41 1222.5q0 94.5 65.5 160t159.5 65.5t160 -65.5t66 -160t-66 -160t-160 -65.5t-159.5 65.5t-65.5 160zM82 1222.5q0 -77.5 53 -131t131 -53.5t131.5 53.5t53.5 131t-53.5 131t-131.5 53.5t-131 -53.5t-53 -131zM190 1135v178q0 29 18.5 47t47.5 18h20q29 0 47.5 -18.5
t18.5 -46.5v-43q0 -8 -6 -8l-49 -9q-6 -4 -6 7v51q0 12 -13 12h-4q-12 0 -12 -12v-174q0 -12 12 -13h4q12 0 13 13v57q0 6 6 6l49 -8q6 -4 6 -8v-49q0 -29 -18.5 -47.5t-47.5 -18.5h-20q-29 0 -47.5 18.5t-18.5 47.5z" />
    <glyph glyph-name="uni00AD" unicode="&#xad;" horiz-adv-x="610" 
d="M61 672v155q0 29 29 29h430q29 0 29 -29v-155q0 -29 -29 -29h-430q-29 0 -29 29z" />
    <glyph glyph-name="registered" unicode="&#xae;" horiz-adv-x="532" 
d="M41 1222.5q0 94.5 65.5 160t159.5 65.5t160 -65.5t66 -160t-66 -160t-160 -65.5t-159.5 65.5t-65.5 160zM82 1222.5q0 -77.5 53 -131t131 -53.5t131.5 53.5t53.5 131t-53.5 131t-131.5 53.5t-131 -53.5t-53 -131zM203 1087v275q0 8 6 8h67q25 0 42.5 -19.5t17.5 -45.5
v-37q0 -44 -37 -56l47 -125q2 -6 -4 -6h-47q-4 0 -8 6l-33 105v-107q0 -4 -6 -4h-39q-6 0 -6 6zM254 1253h16q13 1 13 13v37q0 12 -13 12h-16v-62z" />
    <glyph glyph-name="degree" unicode="&#xb0;" horiz-adv-x="344" 
d="M41 1331q0 53 39 92t92 39t92 -39t39 -92t-39 -92t-92 -39t-92 39t-39 92zM94 1331q0 -33 22.5 -55.5t55.5 -22.5t55.5 22.5t22.5 55.5t-22.5 55.5t-55.5 22.5t-55.5 -22.5t-22.5 -55.5z" />
    <glyph glyph-name="paragraph" unicode="&#xb6;" horiz-adv-x="985" 
d="M82 842v334q0 106 76 182t182 76h534q29 0 29 -29v-1376q0 -29 -29 -29h-92q-29 0 -28 29v1185h-78v-1185q0 -29 -29 -29h-182q-29 0 -29 29v555h-96q-106 0 -182 75.5t-76 182.5zM322 852q0 -20 14 -34.5t35 -14.5h65v411h-65q-20 0 -34.5 -14t-14.5 -35v-313z" />
    <glyph glyph-name="questiondown" unicode="&#xbf;" horiz-adv-x="782" 
d="M74 371q4 119 22.5 155.5t132.5 173.5q12 14 37 41t38 42.5t28.5 39t25.5 43.5q12 31 29 164l2 31q0 23 25 22h86q23 0 26 -22l9 -90q2 -20 4 -44t3 -40.5t1 -20.5q2 -57 -19.5 -105t-82 -126t-79.5 -107q-25 -37 -35 -63.5t-11 -41.5t-1 -56q0 -78 16.5 -114t65.5 -36
q74 0 74 105v108q0 18 23 29l194 47q23 4 23 -19v-155q0 -166 -82 -256t-232 -90q-98 0 -167.5 34.5t-101.5 94t-44 122t-10 134.5zM319 1317q0 53 39 92t92.5 39t92.5 -39t39 -92t-39 -92t-92.5 -39t-92.5 39t-39 92z" />
    <glyph glyph-name="Aring" unicode="&#xc5;" horiz-adv-x="729" 
d="M43 29l154 1376q4 29 32 29h271q28 0 32 -29l154 -1376q4 -29 -24 -29h-187q-27 0 -31 29l-16 221h-127l-16 -221q-4 -29 -31 -29h-186q-29 0 -25 29zM317 479h95l-39 555h-17z" />
    <glyph glyph-name="Ccedilla" unicode="&#xc7;" horiz-adv-x="727" 
d="M72 244v946q0 106 76 182t182 76h78q106 0 182 -76t76 -182v-158q0 -29 -27 -37l-186 -49q-27 -6 -27 23v211q0 20 -14.5 34.5t-34.5 14.5h-17q-20 0 -34.5 -14.5t-14.5 -34.5v-926q0 -20 14.5 -34.5t34.5 -14.5h17q20 0 34.5 14t14.5 35v221q0 25 27 33l178 49
q18 4 27.5 -4t7.5 -31v-278q0 -106 -76 -182t-182 -76h-78q-106 0 -182 75.5t-76 182.5z" />
    <glyph glyph-name="Eacute" unicode="&#xc9;" horiz-adv-x="675" 
d="M92 29v1376q0 29 29 29h444q29 0 29 -29v-182q0 -29 -29 -29h-233v-295h203q29 0 28 -29v-182q0 -29 -28 -29h-203v-419h233q29 0 29 -29v-182q0 -29 -29 -29h-444q-29 0 -29 29z" />
    <glyph glyph-name="multiply" unicode="&#xd7;" horiz-adv-x="727" 
d="M49 530q-20 20 0 41l178 179l-178 178q-20 20 0 41l111 110q20 20 41 0l178 -178l178 178q20 20 41 0l111 -110q20 -20 0 -41l-179 -178l179 -179q20 -20 0 -41l-111 -110q-20 -20 -41 0l-178 178l-178 -178q-20 -20 -41 0z" />
    <glyph glyph-name="divide" unicode="&#xf7;" horiz-adv-x="897" 
d="M61 672v155q0 29 29 29h717q29 0 29 -29v-155q0 -29 -29 -29h-717q-29 0 -29 29zM317 444.5q0 53.5 39 92t92.5 38.5t92.5 -38.5t39 -92t-39 -92.5t-92.5 -39t-92.5 39t-39 92.5zM317 1054.5q0 53.5 39 92.5t92.5 39t92.5 -39t39 -92.5t-39 -92t-92.5 -38.5t-92.5 38.5
t-39 92z" />
    <glyph glyph-name="uni2000" unicode="&#x2000;" horiz-adv-x="835" 
 />
    <glyph glyph-name="uni2001" unicode="&#x2001;" horiz-adv-x="1671" 
 />
    <glyph glyph-name="uni2002" unicode="&#x2002;" horiz-adv-x="835" 
 />
    <glyph glyph-name="uni2003" unicode="&#x2003;" horiz-adv-x="1671" 
 />
    <glyph glyph-name="uni2004" unicode="&#x2004;" horiz-adv-x="557" 
 />
    <glyph glyph-name="uni2005" unicode="&#x2005;" horiz-adv-x="417" 
 />
    <glyph glyph-name="uni2006" unicode="&#x2006;" horiz-adv-x="278" 
 />
    <glyph glyph-name="uni2007" unicode="&#x2007;" horiz-adv-x="278" 
 />
    <glyph glyph-name="uni2008" unicode="&#x2008;" horiz-adv-x="208" 
 />
    <glyph glyph-name="uni2009" unicode="&#x2009;" horiz-adv-x="334" 
 />
    <glyph glyph-name="uni200A" unicode="&#x200a;" horiz-adv-x="92" 
 />
    <glyph glyph-name="uni2010" unicode="&#x2010;" horiz-adv-x="610" 
d="M61 672v155q0 29 29 29h430q29 0 29 -29v-155q0 -29 -29 -29h-430q-29 0 -29 29z" />
    <glyph glyph-name="uni2011" unicode="&#x2011;" horiz-adv-x="610" 
d="M61 672v155q0 29 29 29h430q29 0 29 -29v-155q0 -29 -29 -29h-430q-29 0 -29 29z" />
    <glyph glyph-name="figuredash" unicode="&#x2012;" horiz-adv-x="610" 
d="M61 672v155q0 29 29 29h430q29 0 29 -29v-155q0 -29 -29 -29h-430q-29 0 -29 29z" />
    <glyph glyph-name="endash" unicode="&#x2013;" horiz-adv-x="720" 
d="M61 672v155q0 29 29 29h541q29 0 28 -29v-155q1 -29 -28 -29h-541q-29 0 -29 29z" />
    <glyph glyph-name="emdash" unicode="&#x2014;" horiz-adv-x="897" 
d="M61 672v155q0 29 29 29h717q29 0 29 -29v-155q0 -29 -29 -29h-717q-29 0 -29 29z" />
    <glyph glyph-name="quoteleft" unicode="&#x2018;" horiz-adv-x="280" 
d="M4 1239q16 119 107 176q31 18 53 27h4q4 2 8 3t10.5 2t10.5 1q6 0 8 -2q8 -2 8 -14v-31q0 -4 -2 -6q-2 -6 -10 -6q-27 0 -56.5 -21.5t-35.5 -71.5q-6 -27 6 -34q4 -2 9 -2t13 2t10 2q57 0 97 -35q37 -33 37 -94q0 -47 -33 -80q-37 -39 -94 -39q-61 0 -100.5 40t-47.5 101
q-10 45 -2 82z" />
    <glyph glyph-name="quoteright" unicode="&#x2019;" horiz-adv-x="280" 
d="M0 1329q0 47 33 80q37 39 94 39q59 0 99 -40t48 -101q10 -45 2 -82q-16 -119 -106 -176q-31 -18 -53 -27l-4 -2q-4 0 -8.5 -1t-10.5 -2t-10 -1q-6 0 -8 2q-8 2 -8 14v31q0 4 2 6q6 6 10 6q27 0 54.5 21.5t37.5 70.5q6 27 -6 35q-4 2 -9 2t-13.5 -2t-10.5 -2q-57 0 -96 35
q-37 35 -37 94z" />
    <glyph glyph-name="quotesinglbase" unicode="&#x201a;" horiz-adv-x="444" 
d="M82 129q0 47 33 80q37 39 92 39q59 0 100 -40t49 -102q10 -45 2 -81q-16 -119 -106 -177q-31 -18 -53 -26l-4 -2q-4 0 -8.5 -1t-10.5 -2t-10 -1q-6 0 -8 2q-8 2 -8 14v31q0 4 2 6q6 6 10 6q27 0 54.5 21.5t37.5 70.5q6 27 -6 35q-4 2 -9.5 2t-13.5 -2t-10 -2
q-57 0 -96 35q-37 35 -37 94z" />
    <glyph glyph-name="quotedblleft" unicode="&#x201c;" horiz-adv-x="624" 
d="M4 1239q16 119 107 176q31 18 53 27h4q4 2 8 3t10.5 2t10.5 1q6 0 8 -2q8 -2 8 -14v-31q0 -4 -2 -6q-2 -6 -10 -6q-27 0 -56.5 -21.5t-35.5 -71.5q-6 -27 6 -34q4 -2 9 -2t13 2t10 2q57 0 97 -35q37 -33 37 -94q0 -47 -33 -80q-37 -39 -94 -39q-61 0 -100.5 40t-47.5 101
q-10 45 -2 82zM348 1239q16 119 107 176q31 18 53 27h4q4 2 8 3t10.5 2t10.5 1q6 0 8 -2q8 -2 8 -14v-31q0 -4 -2 -6q-2 -6 -10 -6q-27 0 -56.5 -21.5t-35.5 -71.5q-6 -27 6 -34q4 -2 9 -2t13 2t11 2q57 0 96 -35q37 -33 37 -94q0 -47 -33 -80q-37 -39 -94 -39
q-61 0 -100.5 40t-47.5 101q-10 45 -2 82z" />
    <glyph glyph-name="quotedblright" unicode="&#x201d;" horiz-adv-x="624" 
d="M0 1329q0 47 33 80q37 39 94 39q59 0 99 -40t48 -101q10 -45 2 -82q-16 -119 -106 -176q-31 -18 -53 -27l-4 -2q-4 0 -8.5 -1t-10.5 -2t-10 -1q-6 0 -8 2q-8 2 -8 14v31q0 4 2 6q6 6 10 6q27 0 54.5 21.5t37.5 70.5q6 27 -6 35q-4 2 -9 2t-13.5 -2t-10.5 -2q-57 0 -96 35
q-37 35 -37 94zM344 1329q0 47 33 80q37 39 94 39q59 0 99 -40t48 -101q10 -45 3 -82q-16 -119 -107 -176q-31 -18 -53 -27l-4 -2q-4 0 -8.5 -1t-10.5 -2t-10 -1q-6 0 -8 2q-8 2 -8 14v31q0 4 2 6q6 6 10 6q27 0 54.5 21.5t37.5 70.5q6 27 -6 35q-4 2 -9 2t-13.5 -2
t-10.5 -2q-57 0 -96 35q-37 35 -37 94z" />
    <glyph glyph-name="quotedblbase" unicode="&#x201e;" horiz-adv-x="706" 
d="M41 129q0 47 33 80q37 39 92 39q59 0 100 -40t49 -102q10 -45 2 -81q-16 -119 -106 -177q-31 -18 -53 -26l-4 -2q-4 0 -8.5 -1t-10.5 -2t-10 -1q-6 0 -8 2q-8 2 -8 14v31q0 4 2 6q6 6 10 6q27 0 54.5 21.5t37.5 70.5q6 27 -6 35q-4 2 -9 2t-13.5 -2t-10.5 -2
q-57 0 -96 35q-37 35 -37 94zM385 129q0 47 33 80q37 39 92 39q59 0 100 -40t49 -102q10 -45 3 -81q-16 -119 -107 -177q-31 -18 -53 -26l-4 -2q-4 0 -8.5 -1t-10.5 -2t-10 -1q-6 0 -8 2q-8 2 -8 14v31q0 4 2 6q6 6 10 6q27 0 54.5 21.5t37.5 70.5q6 27 -6 35q-4 2 -9 2
t-13.5 -2t-10.5 -2q-57 0 -96 35q-37 35 -37 94z" />
    <glyph glyph-name="bullet" unicode="&#x2022;" horiz-adv-x="507" 
d="M82 716.5q0 71.5 50 122t122 50.5t122 -50.5t50 -122t-50 -121.5t-122 -50t-122 50t-50 121.5z" />
    <glyph glyph-name="ellipsis" unicode="&#x2026;" horiz-adv-x="1024" 
d="M41 116.5q0 53.5 39 92.5t92 39t92 -39t39 -92.5t-39 -92t-92 -38.5t-92 38.5t-39 92zM381 116.5q0 53.5 39 92.5t92 39t92 -39t39 -92.5t-39 -92t-92 -38.5t-92 38.5t-39 92zM721 116.5q0 53.5 39 92.5t92 39t92 -39t39 -92.5t-39 -92t-92 -38.5t-92 38.5t-39 92z" />
    <glyph glyph-name="uni202F" unicode="&#x202f;" horiz-adv-x="334" 
 />
    <glyph glyph-name="uni205F" unicode="&#x205f;" horiz-adv-x="417" 
 />
    <glyph glyph-name="Euro" unicode="&#x20ac;" horiz-adv-x="825" 
d="M82 610v99q0 16 16 16h52v66h-52q-16 0 -16 16v98q0 16 16 17h52v268q0 106 75.5 182t182.5 76h77q106 0 182 -76t76 -182v-82q1 -29 -26 -37l-187 -29q-27 -8 -26 21v117q0 20 -14.5 34.5t-34.5 14.5h-17q-20 0 -34.5 -14.5t-14.5 -34.5v-258h193q16 0 16 -17v-98
q0 -16 -16 -16h-193v-66h193q16 0 16 -16v-99q0 -16 -16 -16h-193v-340q0 -20 14.5 -34.5t34.5 -14.5h17q20 0 34.5 14t14.5 35v205q0 29 26 20l187 -24q27 -8 26 -37v-174q0 -106 -75.5 -182t-182.5 -76h-77q-106 0 -182 75.5t-76 182.5v350h-52q-16 0 -16 16z" />
    <glyph glyph-name="trademark" unicode="&#x2122;" horiz-adv-x="550" 
d="M41 1366v59q0 9 8 9h170q8 0 8 -9v-59q0 -8 -8 -8h-47v-314q0 -8 -8 -8h-60q-8 0 -8 8v314h-47q-8 0 -8 8zM256 1044v381q0 8 8 9h58q8 0 10 -9l51 -204l51 204q0 9 10 9h58q8 0 8 -9v-381q0 -8 -10 -8h-62q-10 0 -10 8v177l-43 -168q-4 -6 -6 0l-43 168v-177q0 -8 -8 -8
h-64q-8 0 -8 8z" />
    <glyph glyph-name="uniE000" unicode="&#xe000;" horiz-adv-x="1228" 
d="M0 0v1229h1229v-1229h-1229z" />
  </font>
</defs>
</svg>
